<svg preserveAspectRatio="none" width="100%" height="100%" overflow="visible" style="display: block;" viewBox="0 0 12.5801 15.8413" fill="none" xmlns="http://www.w3.org/2000/svg">
<g id="Container">
<path id="Icon" d="M6.29004 7.80445C6.70563 7.80445 7.0606 7.65728 7.35493 7.36295C7.64927 7.06861 7.79643 6.71365 7.79643 6.29805C7.79643 5.88245 7.64927 5.52749 7.35493 5.23315C7.0606 4.93882 6.70563 4.79165 6.29004 4.79165C5.87444 4.79165 5.51948 4.93882 5.22514 5.23315C4.93081 5.52749 4.78364 5.88245 4.78364 6.29805C4.78364 6.71365 4.93081 7.06861 5.22514 7.36295C5.51948 7.65728 5.87444 7.80445 6.29004 7.80445V7.80445M6.29004 14.1779C7.92037 12.7185 9.16797 11.3186 10.0328 9.97835C10.8977 8.63806 11.3301 7.46418 11.3301 6.4567C11.3301 4.93747 10.8475 3.68854 9.88219 2.70991C8.91691 1.73127 7.71953 1.24196 6.29004 1.24196C4.86055 1.24196 3.66316 1.73127 2.69789 2.70991C1.73261 3.68854 1.24997 4.93747 1.24997 6.4567C1.24997 7.46418 1.6824 8.63806 2.54725 9.97835C3.4121 11.3186 4.6597 12.7185 6.29004 14.1779V14.1779M6.29004 15.8413C4.19282 14.024 2.62018 12.3328 1.57211 10.7676C0.524036 9.20242 0 7.76546 0 6.4567C0 4.53364 0.622058 2.97675 1.86618 1.78605C3.11029 0.595351 4.58491 0 6.29004 0C7.99516 0 9.46978 0.595351 10.7139 1.78605C11.958 2.97675 12.5801 4.53364 12.5801 6.4567C12.5801 7.76546 12.056 9.20242 11.008 10.7676C9.95989 12.3328 8.38725 14.024 6.29004 15.8413V15.8413M6.29004 6.29805V6.29805V6.29805V6.29805V6.29805V6.29805V6.29805V6.29805V6.29805V6.29805" fill="var(--fill-0, #342716)"/>
</g>
</svg>
