<svg preserveAspectRatio="none" width="100%" height="100%" overflow="visible" style="display: block;" viewBox="0 0 17.0031 12.1794" fill="none" xmlns="http://www.w3.org/2000/svg">
<g id="Container">
<path id="Icon" d="M0 12.1794V10.3269C0 9.89739 0.110843 9.51411 0.33253 9.17704C0.554216 8.83998 0.850275 8.57773 1.22071 8.3903C2.01266 8.00295 2.80901 7.7043 3.60975 7.49437C4.41049 7.28443 5.29056 7.17946 6.24997 7.17946C7.20937 7.17946 8.08945 7.28443 8.89019 7.49437C9.69093 7.7043 10.4873 8.00295 11.2792 8.3903C11.6497 8.57773 11.9457 8.83998 12.1674 9.17704C12.3891 9.51411 12.4999 9.89739 12.4999 10.3269V12.1794H0V12.1794M14.1666 12.1794V10.2243C14.1666 9.67731 14.0327 9.156 13.7648 8.66037C13.4969 8.16475 13.117 7.73949 12.625 7.3846C13.1837 7.46793 13.7142 7.59694 14.2163 7.77161C14.7184 7.94629 15.1976 8.15275 15.6538 8.391C16.0843 8.62069 16.4168 8.89142 16.6513 9.20317C16.8859 9.51492 17.0031 9.8553 17.0031 10.2243V12.1794H14.1666V12.1794M6.24997 5.83327C5.44549 5.83327 4.75826 5.54829 4.18829 4.97831C3.61832 4.40834 3.33333 3.72112 3.33333 2.91664C3.33333 2.11216 3.61832 1.42493 4.18829 0.854959C4.75826 0.284986 5.44549 0 6.24997 0C7.05445 0 7.74167 0.284986 8.31165 0.854959C8.88162 1.42493 9.16661 2.11216 9.16661 2.91664C9.16661 3.72112 8.88162 4.40834 8.31165 4.97831C7.74167 5.54829 7.05445 5.83327 6.24997 5.83327V5.83327M13.4454 2.91664C13.4454 3.72112 13.1598 4.40834 12.5886 4.97831C12.0175 5.54829 11.3308 5.83327 10.5288 5.83327C10.4348 5.83327 10.3151 5.82259 10.1698 5.80122C10.0245 5.77986 9.90486 5.75635 9.81085 5.73071C10.1395 5.33562 10.392 4.8973 10.5685 4.41578C10.745 3.93425 10.8333 3.43421 10.8333 2.91564C10.8333 2.39708 10.7433 1.89902 10.5632 1.42146C10.3832 0.943898 10.1324 0.504266 9.81085 0.102559C9.9305 0.0598263 10.0502 0.0320498 10.1698 0.0192299C10.2895 0.00640996 10.4091 0 10.5288 0C11.3308 0 12.0175 0.284986 12.5886 0.854959C13.1598 1.42493 13.4454 2.11216 13.4454 2.91664V2.91664M1.24997 10.9294H11.25V10.3269C11.25 10.1527 11.2064 9.99781 11.1194 9.86213C11.0323 9.72644 10.8942 9.60785 10.7051 9.50635C10.0192 9.15272 9.313 8.88483 8.58651 8.70267C7.86002 8.52051 7.08117 8.42943 6.24997 8.42943C5.41877 8.42943 4.63992 8.52051 3.91343 8.70267C3.18694 8.88483 2.48074 9.15272 1.79485 9.50635C1.60574 9.60785 1.46765 9.72644 1.38058 9.86213C1.29351 9.99781 1.24997 10.1527 1.24997 10.3269V10.9294V10.9294M6.24997 4.5833C6.7083 4.5833 7.10066 4.42011 7.42705 4.09372C7.75344 3.76733 7.91664 3.37497 7.91664 2.91664C7.91664 2.4583 7.75344 2.06594 7.42705 1.73955C7.10066 1.41316 6.7083 1.24997 6.24997 1.24997C5.79164 1.24997 5.39927 1.41316 5.07289 1.73955C4.7465 2.06594 4.5833 2.4583 4.5833 2.91664C4.5833 3.37497 4.7465 3.76733 5.07289 4.09372C5.39927 4.42011 5.79164 4.5833 6.24997 4.5833V4.5833M6.24997 10.9294V10.9294V10.9294V10.9294V10.9294V10.9294V10.9294V10.9294V10.9294V10.9294V10.9294V10.9294V10.9294M6.24997 2.91664V2.91664V2.91664V2.91664V2.91664V2.91664V2.91664V2.91664V2.91664V2.91664" fill="var(--fill-0, #342716)"/>
</g>
</svg>
