<svg preserveAspectRatio="none" width="100%" height="100%" overflow="visible" style="display: block;" viewBox="0 0 18 22" fill="none" xmlns="http://www.w3.org/2000/svg">
<g id="Container">
<path id="Icon" d="M9.05 22L4.35 13C3.16667 13.05 2.14583 12.7083 1.2875 11.975C0.429167 11.2417 0 10.25 0 9C0 8.15 0.245833 7.38333 0.7375 6.7C1.22917 6.01667 1.85 5.53333 2.6 5.25C2.9 3.73333 3.64583 2.47917 4.8375 1.4875C6.02917 0.495833 7.41667 0 9 0C10.5833 0 11.9708 0.495833 13.1625 1.4875C14.3542 2.47917 15.1 3.73333 15.4 5.25C16.15 5.53333 16.7708 6.01667 17.2625 6.7C17.7542 7.38333 18 8.15 18 9C18 10.25 17.5583 11.2417 16.675 11.975C15.7917 12.7083 14.8 13.05 13.7 13L9.05 22V22M4 11C4.25 11 4.49583 10.9583 4.7375 10.875C4.97917 10.7917 5.2 10.65 5.4 10.45L5.95 9.9L6.6 10.3C6.95 10.5333 7.32917 10.7083 7.7375 10.825C8.14583 10.9417 8.56667 11 9 11C9.43333 11 9.85417 10.9417 10.2625 10.825C10.6708 10.7083 11.05 10.5333 11.4 10.3L12.05 9.9L12.6 10.45C12.8 10.65 13.0208 10.7917 13.2625 10.875C13.5042 10.9583 13.75 11 14 11C14.55 11 15.0208 10.8042 15.4125 10.4125C15.8042 10.0208 16 9.55 16 9C16 8.5 15.8417 8.0625 15.525 7.6875C15.2083 7.3125 14.8 7.08333 14.3 7L13.55 6.9L13.5 6.1C13.4167 4.95 12.9417 3.97917 12.075 3.1875C11.2083 2.39583 10.1833 2 9 2C7.81667 2 6.79167 2.39583 5.925 3.1875C5.05833 3.97917 4.58333 4.95 4.5 6.1L4.45 6.9L3.7 7.05C3.2 7.15 2.79167 7.375 2.475 7.725C2.15833 8.075 2 8.5 2 9C2 9.55 2.19583 10.0208 2.5875 10.4125C2.97917 10.8042 3.45 11 4 11V11M9.05 17.65L11.75 12.4V12.4C11.35 12.6 10.9167 12.75 10.45 12.85C9.98333 12.95 9.5 13 9 13C8.55 13 8.09583 12.95 7.6375 12.85C7.17917 12.75 6.73333 12.6 6.3 12.4V12.4L9.05 17.65V17.65M9 6.5V6.5V6.5V6.5V6.5V6.5V6.5V6.5V6.5V6.5V6.5V6.5V6.5V6.5V6.5V6.5V6.5V6.5V6.5V6.5V6.5V6.5V6.5V6.5V6.5V6.5V6.5V6.5V6.5V6.5" fill="var(--fill-0, #342716)" fill-opacity="0.7"/>
</g>
</svg>
